<?xml version="1.0" encoding="UTF-8" standalone="no"?>
<!DOCTYPE svg PUBLIC "-//W3C//DTD SVG 1.1//EN"
 "http://www.w3.org/Graphics/SVG/1.1/DTD/svg11.dtd">
<!-- Generated by graphviz version 2.34.0 (20130907.0228)
 -->
<!-- Title: %3 Pages: 1 -->
<svg width="509pt" height="268pt"
 viewBox="0.00 0.00 509.00 268.00" xmlns="http://www.w3.org/2000/svg" xmlns:xlink="http://www.w3.org/1999/xlink">
<g id="graph0" class="graph" transform="scale(1 1) rotate(0) translate(4 264)">
<title>%3</title>
<polygon fill="white" stroke="white" points="-4,4 -4,-264 505,-264 505,4 -4,4"/>
<!-- org_liveSense_jdbc_mysql -->
<g id="node1" class="node"><title>org_liveSense_jdbc_mysql</title>
<polygon fill="yellow" stroke="black" points="201.5,-223 201.5,-259 362.5,-259 362.5,-223 201.5,-223"/>
<text text-anchor="middle" x="282" y="-248.1" font-family="Arial" font-size="8.00">liveSense :: JDBC :: Mysql</text>
<polyline fill="none" stroke="black" points="201.5,-241 362.5,-241 "/>
<text text-anchor="middle" x="282" y="-230.1" font-family="Arial" font-size="8.00">org.liveSense.jdbc.mysql(2&#45;SNAPSHOT)</text>
</g>
<!-- org_ops4j_pax_logging_pax_logging_api -->
<g id="node2" class="node"><title>org_ops4j_pax_logging_pax_logging_api</title>
<polygon fill="green" stroke="black" points="87.5,-149 87.5,-185 260.5,-185 260.5,-149 87.5,-149"/>
<text text-anchor="middle" x="174" y="-174.1" font-family="Arial" font-size="8.00">OPS4J Pax Logging &#45; API</text>
<polyline fill="none" stroke="black" points="87.5,-167 260.5,-167 "/>
<text text-anchor="middle" x="174" y="-156.1" font-family="Arial" font-size="8.00">org.ops4j.pax.logging.pax&#45;logging&#45;api(1.7.0)</text>
</g>
<!-- org_liveSense_jdbc_mysql&#45;&gt;org_ops4j_pax_logging_pax_logging_api -->
<g id="edge1" class="edge"><title>org_liveSense_jdbc_mysql&#45;&gt;org_ops4j_pax_logging_pax_logging_api</title>
<path fill="none" stroke="yellow" d="M256.406,-222.937C241.985,-213.323 223.786,-201.19 208.161,-190.774"/>
<polygon fill="yellow" stroke="yellow" points="210.047,-187.825 199.785,-185.19 206.164,-193.649 210.047,-187.825"/>
</g>
<!-- org_apache_geronimo_specs_geronimo_jta_1_1_spec -->
<g id="node3" class="node"><title>org_apache_geronimo_specs_geronimo_jta_1_1_spec</title>
<polygon fill="green" stroke="black" points="279,-149 279,-185 501,-185 501,-149 279,-149"/>
<text text-anchor="middle" x="390" y="-174.1" font-family="Arial" font-size="8.00">geronimo&#45;jta_1.1_spec</text>
<polyline fill="none" stroke="black" points="279,-167 501,-167 "/>
<text text-anchor="middle" x="390" y="-156.1" font-family="Arial" font-size="8.00">org.apache.geronimo.specs.geronimo&#45;jta_1.1_spec(1.1.1)</text>
</g>
<!-- org_liveSense_jdbc_mysql&#45;&gt;org_apache_geronimo_specs_geronimo_jta_1_1_spec -->
<g id="edge2" class="edge"><title>org_liveSense_jdbc_mysql&#45;&gt;org_apache_geronimo_specs_geronimo_jta_1_1_spec</title>
<path fill="none" stroke="yellow" d="M307.594,-222.937C322.015,-213.323 340.214,-201.19 355.839,-190.774"/>
<polygon fill="yellow" stroke="yellow" points="357.836,-193.649 364.215,-185.19 353.953,-187.825 357.836,-193.649"/>
</g>
<!-- org_apache_felix_eventadmin -->
<g id="node4" class="node"><title>org_apache_felix_eventadmin</title>
<polygon fill="#3182bd" stroke="black" points="104,-75 104,-111 244,-111 244,-75 104,-75"/>
<text text-anchor="middle" x="174" y="-100.1" font-family="Arial" font-size="8.00">Apache Felix EventAdmin</text>
<polyline fill="none" stroke="black" points="104,-93 244,-93 "/>
<text text-anchor="middle" x="174" y="-82.1" font-family="Arial" font-size="8.00">org.apache.felix.eventadmin(1.3.2)</text>
</g>
<!-- org_ops4j_pax_logging_pax_logging_api&#45;&gt;org_apache_felix_eventadmin -->
<g id="edge3" class="edge"><title>org_ops4j_pax_logging_pax_logging_api&#45;&gt;org_apache_felix_eventadmin</title>
<path fill="none" stroke="green" d="M168.16,-148.937C167.297,-140.807 167.048,-130.876 167.412,-121.705"/>
<polygon fill="green" stroke="green" points="170.923,-121.658 168.121,-111.441 163.94,-121.176 170.923,-121.658"/>
</g>
<!-- org_apache_felix_eventadmin&#45;&gt;org_ops4j_pax_logging_pax_logging_api -->
<g id="edge4" class="edge"><title>org_apache_felix_eventadmin&#45;&gt;org_ops4j_pax_logging_pax_logging_api</title>
<path fill="none" stroke="#3182bd" d="M179.879,-111.441C180.723,-119.625 180.954,-129.572 180.571,-138.719"/>
<polygon fill="#3182bd" stroke="#3182bd" points="177.062,-138.713 179.84,-148.937 184.045,-139.212 177.062,-138.713"/>
</g>
<!-- org_apache_felix_configadmin -->
<g id="node5" class="node"><title>org_apache_felix_configadmin</title>
<polygon fill="#9ecae1" stroke="black" points="0,-1 0,-37 166,-37 166,-1 0,-1"/>
<text text-anchor="middle" x="83" y="-26.1" font-family="Arial" font-size="8.00">Apache Felix Configuration Admin Service</text>
<polyline fill="none" stroke="black" points="0,-19 166,-19 "/>
<text text-anchor="middle" x="83" y="-8.1" font-family="Arial" font-size="8.00">org.apache.felix.configadmin(1.6.0)</text>
</g>
<!-- org_apache_felix_eventadmin&#45;&gt;org_apache_felix_configadmin -->
<g id="edge5" class="edge"><title>org_apache_felix_eventadmin&#45;&gt;org_apache_felix_configadmin</title>
<path fill="none" stroke="#3182bd" d="M152.434,-74.937C140.621,-65.5902 125.798,-53.8625 112.885,-43.6456"/>
<polygon fill="#3182bd" stroke="#3182bd" points="114.74,-40.6501 104.726,-37.19 110.397,-46.1397 114.74,-40.6501"/>
</g>
<!-- org_apache_felix_metatype -->
<g id="node6" class="node"><title>org_apache_felix_metatype</title>
<polygon fill="#9ecae1" stroke="black" points="198.5,-1 198.5,-37 329.5,-37 329.5,-1 198.5,-1"/>
<text text-anchor="middle" x="264" y="-26.1" font-family="Arial" font-size="8.00">Apache Felix Metatype Service</text>
<polyline fill="none" stroke="black" points="198.5,-19 329.5,-19 "/>
<text text-anchor="middle" x="264" y="-8.1" font-family="Arial" font-size="8.00">org.apache.felix.metatype(1.0.6)</text>
</g>
<!-- org_apache_felix_eventadmin&#45;&gt;org_apache_felix_metatype -->
<g id="edge6" class="edge"><title>org_apache_felix_eventadmin&#45;&gt;org_apache_felix_metatype</title>
<path fill="none" stroke="#3182bd" d="M195.329,-74.937C207.012,-65.5902 221.672,-53.8625 234.443,-43.6456"/>
<polygon fill="#3182bd" stroke="#3182bd" points="236.89,-46.1701 242.512,-37.19 232.517,-40.704 236.89,-46.1701"/>
</g>
<!-- org_apache_felix_configadmin&#45;&gt;org_ops4j_pax_logging_pax_logging_api -->
<g id="edge7" class="edge"><title>org_apache_felix_configadmin&#45;&gt;org_ops4j_pax_logging_pax_logging_api</title>
<path fill="none" stroke="#9ecae1" d="M81.2408,-37.3142C80.11,-56.9083 80.9296,-89.0738 95,-112 102.837,-124.77 114.957,-135.244 127.37,-143.456"/>
<polygon fill="#9ecae1" stroke="#9ecae1" points="125.617,-146.487 135.961,-148.779 129.304,-140.537 125.617,-146.487"/>
</g>
<!-- org_apache_felix_metatype&#45;&gt;org_ops4j_pax_logging_pax_logging_api -->
<g id="edge8" class="edge"><title>org_apache_felix_metatype&#45;&gt;org_ops4j_pax_logging_pax_logging_api</title>
<path fill="none" stroke="#9ecae1" d="M265.986,-37.2982C267.366,-56.8776 266.929,-89.0296 253,-112 245.231,-124.812 233.131,-135.298 220.716,-143.508"/>
<polygon fill="#9ecae1" stroke="#9ecae1" points="218.781,-140.59 212.12,-148.829 222.465,-146.542 218.781,-140.59"/>
</g>
</g>
</svg>
